<svg xmlns="http://www.w3.org/2000/svg" viewBox="0 0 240 235.28" width="240" height="235.28" style="background-color: transparent;"><defs><style>@import url('https://fonts.googleapis.com/css2?family=Caveat+Brush&amp;family=Source+Code+Pro&amp;family=Source+Sans+Pro&amp;family=Crimson+Pro&amp;display=block');</style></defs><g id="28821454-e448-4b19-2fc9-c6a0c2224a92_svg" class="tl-centered-g" transform="translate(104.00, 16.00) rotate(0.00, 16.00, 16.00)"><ellipse cx="16" cy="16" rx="13.88" ry="13.88" fill="none" stroke="#1d1d1d" stroke-width="4.23" stroke-dasharray="none" stroke-dashoffset="none" pointer-events="none" stroke-linecap="round" stroke-linejoin="round"/></g><g id="edd5d902-beeb-43c9-3104-1f1ab2cbd791_svg" class="tl-centered-g" transform="translate(56.78, 47.06) rotate(0.00, 28.91, 23.89)"><defs><mask id="edd5d902-beeb-43c9-3104-1f1ab2cbd791_clip"><rect x="-100" y="-100" width="257.82" height="247.78" fill="white"/><rect x="28.91" y="23.89" width="0" height="0" rx="2.34" ry="2.34" fill="black" opacity="1"/></mask></defs><g pointer-events="none" opacity="1" mask=""><path d="M57.82,0L0,47.78" fill="#1d1d1d" stroke="#1d1d1d" stroke-width="4.23" stroke-dasharray="none" stroke-dashoffset="none" stroke-linecap="round" stroke-linejoin="round" pointer-events="stroke"/></g></g><g id="16a3cb21-69f8-47c5-27ee-a1af05cb9583_svg" class="tl-centered-g" transform="translate(125.85, 46.89) rotate(0.00, 28.48, 24.18)"><defs><mask id="16a3cb21-69f8-47c5-27ee-a1af05cb9583_clip"><rect x="-100" y="-100" width="256.97" height="248.35" fill="white"/><rect x="28.48" y="24.17" width="0" height="0" rx="2.33" ry="2.33" fill="black" opacity="1"/></mask></defs><g pointer-events="none" opacity="1" mask=""><path d="M0,0L56.97,48.35" fill="#1d1d1d" stroke="#1d1d1d" stroke-width="4.23" stroke-dasharray="none" stroke-dashoffset="none" stroke-linecap="round" stroke-linejoin="round" pointer-events="stroke"/></g></g><g id="dbc25285-948a-458c-269f-1b95a3067d27_svg" class="tl-centered-g" transform="translate(16.00, 88.00) rotate(0.00, 24.00, 24.00)"><ellipse cx="24" cy="24" rx="21.88" ry="21.88" fill="none" stroke="#1d1d1d" stroke-width="4.23" stroke-dasharray="none" stroke-dashoffset="none" pointer-events="none" stroke-linecap="round" stroke-linejoin="round"/></g><g id="41a9269d-e08e-429a-2d67-cc6c92d5a440_svg" class="tl-centered-g" transform="translate(176.00, 88.00) rotate(0.00, 24.00, 24.00)"><ellipse cx="24" cy="24" rx="21.88" ry="21.88" fill="none" stroke="#1d1d1d" stroke-width="4.23" stroke-dasharray="none" stroke-dashoffset="none" pointer-events="none" stroke-linecap="round" stroke-linejoin="round"/></g><g id="48d131a0-7a13-479f-2dc6-bbf898048b6c_svg" class="tl-centered-g" transform="translate(120.00, 48.00) rotate(0.00, 0.50, 76.00)"><defs><mask id="48d131a0-7a13-479f-2dc6-bbf898048b6c_clip"><rect x="-100" y="-100" width="201" height="352" fill="white"/><rect x="0" y="76" width="0" height="0" rx="4" ry="4" fill="black" opacity="1"/></mask></defs><g pointer-events="none" opacity="1" mask=""><path d="M0,0L0,152" fill="#1d1d1d" stroke="#1d1d1d" stroke-width="4.23" stroke-dasharray="none" stroke-dashoffset="none" stroke-linecap="round" stroke-linejoin="round" pointer-events="stroke"/></g></g><g id="e473fe7c-8b76-41c7-0c71-ad9e40098daa_svg" class="tl-centered-g" transform="translate(80.00, 200.00) rotate(0.00, 40.00, 9.65)"><defs><mask id="e473fe7c-8b76-41c7-0c71-ad9e40098daa_clip"><rect x="-100" y="-100" width="280" height="219.29" fill="white"/><rect x="39.77" y="-0.033399677380778314" width="0" height="0" rx="2.85" ry="2.85" fill="black" opacity="1"/></mask></defs><g pointer-events="none" opacity="1" mask=""><path d="M 0 19.29 A 51.88 51.88 0 0 1 80 18.33" fill="none" stroke="#1d1d1d" stroke-width="4.23" stroke-dasharray="none" stroke-dashoffset="none" stroke-linecap="round" stroke-linejoin="round" pointer-events="none"/></g></g></svg>